<?xml version="1.0" encoding="utf-8"?>
<!-- Generator: Adobe Illustrator 21.1.0, SVG Export Plug-In . SVG Version: 6.00 Build 0)  -->
<svg version="1.1" id="Layer_1" xmlns="http://www.w3.org/2000/svg" xmlns:xlink="http://www.w3.org/1999/xlink" x="0px" y="0px"
	 viewBox="0 0 158.2 32" style="enable-background:new 0 0 158.2 32;" xml:space="preserve">
<style type="text/css">
	.st0{fill:#606162;}
</style>
<g>
	<path class="st0" d="M74.3,24c0,5.3-4.4,8-13.1,8h-8.5c-3.1,0-5.9-0.6-8.5-1.6c-3.4-1.5-5-3.5-5-6.1V2c0-1.1,0.4-1.6,1.2-1.9
		C40.4,0,41.2,0,42.6,0c1.4,0,2,0.7,2,2V7h16.5c8.7,0,13.1,2.6,13.1,7.9L74.3,24L74.3,24z M68.8,23.9v-8.9c0-2.1-2.5-3.3-7.5-3.3
		H44.6v12.5c0,1.2,1.2,1.9,3.6,2.5c1.6,0.4,3.4,0.6,5,0.6h8c2.5,0,4.1-0.1,4.8-0.3C67.8,26.6,68.8,25.5,68.8,23.9z"/>
	<path class="st0" d="M112.8,24.1c0,2.9-1.5,4.9-4.3,6.3c-2.1,1.1-4.8,1.6-8,1.6h-9.2c-3.2,0-5.9-0.5-8.2-1.6
		c-3.1-1.4-4.7-3.5-4.7-6.3v-9.3c0-2.8,1.6-4.9,4.6-6.4c2.5-1.1,5.2-1.6,8.3-1.6h9.2c8.2,0,12.3,2.7,12.3,8
		C112.8,14.8,112.8,24.1,112.8,24.1z M107.2,24.1v-9.7c0-2-2.3-3-6.8-3h-9c-1.6,0-3.2,0.2-4.6,0.7c-1.9,0.6-2.8,1.6-2.8,2.8v9.3
		c0,1.2,1,2.1,2.9,2.6c1.3,0.4,2.8,0.6,4.5,0.6h9c1.5,0,2.8-0.2,4.2-0.6C106.3,26.1,107.2,25.3,107.2,24.1z"/>
	<path class="st0" d="M150.6,28.2c0.8,0.6,1.2,1.2,1.2,1.9c0,1.3-0.8,1.8-2.3,1.8h-1.6c-0.5,0-0.9-0.1-1.2-0.4l-12.4-9l-12.5,9
		c-0.4,0.3-0.8,0.4-1.2,0.4h-1.7c-1.6,0-2.3-0.6-2.3-1.8c0-0.7,0.4-1.4,1.2-1.9l12.3-8.8l-12.2-8.8c-0.8-0.6-1.2-1.2-1.2-1.9
		c0-1.3,0.8-1.8,2.3-1.8h1.7c0.5,0,0.9,0.1,1.2,0.4l12.3,9l12-9c0.4-0.3,0.8-0.4,1.3-0.4h1.6c1.6,0,2.3,0.6,2.3,1.8
		c0,0.7-0.4,1.4-1.2,1.9l-11.9,8.8L150.6,28.2z"/>
	<path class="st0" d="M3,4.7C3,5.3,2.7,5.7,2.1,6c-0.4,0.2-1,0.2-1.7,0.2c-0.2,0-0.3,0-0.3-0.1C0,6,0,5.8,0,5.7
		c0-0.2,0.1-0.4,0.4-0.4c0.5,0,0.9,0,1.1-0.1C1.8,5.1,2,4.9,2,4.6V1.2C2,1,2.1,0.8,2.4,0.8s0.4,0,0.4,0C2.9,0.9,3,1,3,1.2V4.7z"/>
	<path class="st0" d="M10.7,4.8c0,0.9-0.7,1.3-1.9,1.3H6.5C6,6.1,5.6,6,5.2,5.8c-0.5-0.2-0.8-0.6-0.8-1V4.4c0-0.5,0.2-0.8,0.7-1
		c0.4-0.2,0.8-0.3,1.3-0.3h3.3c0-0.3-0.5-0.5-1.3-0.5c-0.1,0-0.2,0-0.3,0C8,2.6,8,2.6,8,2.6c-0.2,0.1-0.3,0-0.3-0.3V2.2
		C7.7,2,7.8,1.9,8,1.9c0.8,0,1.4,0,1.7,0.1c0.7,0.2,1,0.6,1,1.2V4.8z M9.8,4H6.4C6.2,4,6,4,5.8,4.1C5.5,4.2,5.4,4.3,5.4,4.4v0.5
		c0,0.2,0.1,0.3,0.4,0.4C6,5.3,6.2,5.3,6.4,5.3h2.3c0.4,0,0.7-0.1,0.8-0.2C9.6,5,9.7,4.8,9.7,4.6c0-0.1,0-0.2,0-0.3
		C9.8,4.2,9.8,4.1,9.8,4z"/>
	<path class="st0" d="M18.1,5.8c0,0.2-0.1,0.4-0.4,0.4h-3.5c-0.7,0-1.2-0.1-1.5-0.2c-0.5-0.2-0.7-0.6-0.7-1.2V3.2
		c0-0.9,0.7-1.3,2-1.3h3.7c0.2,0,0.4,0.1,0.4,0.4s-0.1,0.4-0.4,0.4h-3.7c-0.8,0-1.2,0.2-1.2,0.5v1.6c0,0.4,0.4,0.6,1.3,0.6h3.5
		C18,5.3,18.1,5.5,18.1,5.8z"/>
	<path class="st0" d="M24.3,5.5c0.2,0.1,0.2,0.2,0.2,0.3c0,0.2-0.1,0.3-0.4,0.3s-0.4,0-0.5,0l-3.2-1.6v1.4c0,0.2-0.1,0.3-0.2,0.3
		s-0.2,0-0.4,0c-0.2,0-0.4-0.1-0.4-0.4V1.2c0-0.2,0.1-0.4,0.4-0.4c0.2,0,0.4,0,0.4,0c0.1,0,0.2,0.2,0.2,0.3v2.4l0,0l3.1-1.6
		c0.1,0,0.2,0,0.4,0c0.3,0,0.4,0.1,0.4,0.3c0,0.1-0.1,0.3-0.3,0.3L21.2,4L24.3,5.5z"/>
	<path class="st0" d="M29.1,1.6c0,0.2-0.1,0.3-0.2,0.4c-0.1,0.1-0.3,0.1-0.4,0.1c-0.2,0-0.3,0-0.4-0.1c-0.1-0.1-0.2-0.2-0.2-0.4
		s0.1-0.3,0.2-0.4c0.1-0.1,0.3-0.1,0.4-0.1c0.2,0,0.3,0,0.4,0.1C29,1.5,29.1,1.6,29.1,1.6z M28.9,5.8c0,0.2-0.1,0.4-0.4,0.4
		c-0.2,0-0.4,0-0.4,0c-0.1,0-0.2-0.2-0.2-0.3V2.6c0-0.2,0.1-0.4,0.4-0.4c0.2,0,0.4,0,0.4,0c0.1,0,0.2,0.2,0.2,0.3V5.8z"/>
	<path class="st0" d="M36.2,5.8c0,0.2-0.1,0.4-0.4,0.4c-0.2,0-0.4,0-0.4,0c-0.1,0-0.2-0.2-0.2-0.3V3.1c0-0.2-0.2-0.3-0.5-0.4
		c-0.1,0-0.4,0-0.7,0h-1.6c-0.4,0-0.6,0-0.7,0c-0.3,0.1-0.5,0.2-0.5,0.4v2.7c0,0.2-0.1,0.4-0.4,0.4c-0.2,0-0.4,0-0.4,0
		c-0.1,0-0.2-0.2-0.2-0.3V3.1c0-0.8,0.7-1.2,2.1-1.2H34c1.5,0,2.1,0.4,2.1,1.2V5.8z"/>
	<g>
		<path class="st0" d="M14.6,10.3c0,0.4-0.2,0.5-0.5,0.5h-2.2v4.6c0,0.4-0.2,0.5-0.5,0.5c-0.3,0-0.5,0-0.6,0
			c-0.2-0.1-0.3-0.2-0.3-0.5v-4.6h-0.5c-0.4,0-0.6-0.2-0.6-0.6c0-0.4,0.2-0.6,0.6-0.6h0.5V8.4C10.6,8,10.8,8,11.1,8
			c0.3,0,0.5,0,0.6,0c0.2,0.1,0.3,0.2,0.3,0.5v1.3h2.2C14.4,9.6,14.6,9.9,14.6,10.3z"/>
		<path class="st0" d="M25.5,15.4c0,0.3-0.1,0.4-0.3,0.5c-0.1,0-0.3,0-0.6,0c-0.4,0-0.5-0.2-0.5-0.5v-3.8c0-0.4-0.2-0.7-0.7-0.8
			c-0.2-0.1-0.6-0.1-1.2-0.1h-4.1v4.6c0,0.4-0.2,0.5-0.5,0.5c-0.3,0-0.5,0-0.6,0c-0.2-0.1-0.3-0.2-0.3-0.5V8.4C16.9,8.1,17,8,17.2,8
			c0.1,0,0.3,0,0.6,0c0.4,0,0.5,0.2,0.5,0.5v1.3H22c1.1,0,1.8,0.1,2.3,0.3c0.8,0.3,1.3,0.9,1.3,1.7L25.5,15.4L25.5,15.4z"/>
		<path class="st0" d="M36.5,12.8c0,0.4-0.1,0.6-0.4,0.6h-6.9c-0.1,0.9,0.7,1.4,2.1,1.4c0.1,0,0.2,0,0.4,0c0.2,0,0.3,0,0.3,0
			c0.4,0,0.5,0.2,0.5,0.7c0,0.4-0.2,0.5-0.5,0.5c-0.9,0-1.6,0-1.8,0c-0.8-0.1-1.4-0.3-1.6-0.6c-0.5-0.4-0.8-0.9-0.8-1.5v-2.3
			c0-0.8,0.4-1.3,1.2-1.6c0.6-0.3,1.3-0.4,2.1-0.4h2.6c0.7,0,1.3,0.1,1.8,0.4c0.7,0.3,1,0.8,1,1.4V12.8z M35.1,12.2v-0.8
			c0-0.5-1-0.7-2.8-0.7c-0.2,0-0.5,0-0.8,0s-0.4,0-0.3,0c-1.4,0-2.1,0.3-2.1,0.8v0.7H35.1z"/>
	</g>
	<g>
		<path class="st0" d="M156.2,6.7c0.5,0,1,0.2,1.4,0.6c0.4,0.4,0.6,0.9,0.6,1.4c0,0.5-0.2,1-0.6,1.4s-0.9,0.6-1.4,0.6
			s-1-0.2-1.4-0.6c-0.4-0.4-0.6-0.9-0.6-1.4c0-0.5,0.2-1,0.6-1.4C155.2,6.9,155.7,6.7,156.2,6.7z M156.2,10.2c0.5,0,0.8-0.2,1.2-0.5
			c0.3-0.3,0.5-0.7,0.5-1.2c0-0.5-0.2-0.8-0.5-1.2c-0.3-0.3-0.7-0.5-1.2-0.5s-0.8,0.2-1.2,0.5c-0.3,0.3-0.5,0.7-0.5,1.2
			c0,0.5,0.2,0.8,0.5,1.2S155.7,10.2,156.2,10.2z M157.1,9.7h-0.4l-0.2-0.5c-0.1-0.3-0.3-0.4-0.6-0.4h-0.3v0.9h-0.3v-2h0.8
			c0.6,0,0.8,0.2,0.8,0.6s-0.2,0.6-0.6,0.6c0.2,0.1,0.3,0.2,0.4,0.4L157.1,9.7z M155.7,8.5h0.4c0.3,0,0.5-0.1,0.5-0.3
			S156.4,8,156.1,8h-0.4V8.5z"/>
	</g>
</g>
</svg>
